<mxfile host="Electron" modified="2023-10-20T15:44:04.179Z" agent="Mozilla/5.0 (Windows NT 10.0; Win64; x64) AppleWebKit/537.36 (KHTML, like Gecko) draw.io/22.0.2 Chrome/114.0.5735.289 Electron/25.8.4 Safari/537.36" etag="4955wOxbAYwzVHXa1MGF" version="22.0.2" type="device">
  <diagram name="Page-1" id="Q192QVgFNLm6YsgudmNz">
    <mxGraphModel dx="1358" dy="797" grid="1" gridSize="10" guides="1" tooltips="1" connect="1" arrows="1" fold="1" page="1" pageScale="1" pageWidth="1100" pageHeight="850" math="0" shadow="0">
      <root>
        <mxCell id="0" />
        <mxCell id="1" parent="0" />
        <mxCell id="BRBfMTmht_nKHhd3XeDZ-2" value="" style="verticalLabelPosition=bottom;verticalAlign=top;html=1;shape=mxgraph.basic.arc;startAngle=0.6827750789134486;endAngle=0.9984085036175459;strokeWidth=4;" vertex="1" parent="1">
          <mxGeometry x="475" y="210" width="70" height="240" as="geometry" />
        </mxCell>
        <mxCell id="BRBfMTmht_nKHhd3XeDZ-3" value="" style="verticalLabelPosition=bottom;verticalAlign=top;html=1;shape=mxgraph.basic.arc;startAngle=0.6795939557168147;endAngle=0.019007703923974835;strokeWidth=4;flipH=1;" vertex="1" parent="1">
          <mxGeometry x="475" y="210" width="70" height="240" as="geometry" />
        </mxCell>
        <mxCell id="BRBfMTmht_nKHhd3XeDZ-5" value="" style="endArrow=none;html=1;rounded=0;entryX=0.025;entryY=0.625;entryDx=0;entryDy=0;entryPerimeter=0;strokeWidth=4;" edge="1" parent="1">
          <mxGeometry width="50" height="50" relative="1" as="geometry">
            <mxPoint x="475" y="380" as="sourcePoint" />
            <mxPoint x="543.2500000000002" y="380" as="targetPoint" />
          </mxGeometry>
        </mxCell>
        <mxCell id="BRBfMTmht_nKHhd3XeDZ-6" value="" style="rounded=0;whiteSpace=wrap;html=1;strokeWidth=4;" vertex="1" parent="1">
          <mxGeometry x="500" y="270" width="20" height="20" as="geometry" />
        </mxCell>
        <mxCell id="BRBfMTmht_nKHhd3XeDZ-7" value="" style="rounded=0;whiteSpace=wrap;html=1;strokeWidth=4;" vertex="1" parent="1">
          <mxGeometry x="495" y="280" width="30" height="20" as="geometry" />
        </mxCell>
        <mxCell id="BRBfMTmht_nKHhd3XeDZ-8" value="" style="endArrow=classic;html=1;rounded=0;strokeWidth=4;" edge="1" parent="1">
          <mxGeometry width="50" height="50" relative="1" as="geometry">
            <mxPoint x="510" y="200" as="sourcePoint" />
            <mxPoint x="510" y="60" as="targetPoint" />
          </mxGeometry>
        </mxCell>
        <mxCell id="BRBfMTmht_nKHhd3XeDZ-9" value="" style="shape=flexArrow;endArrow=none;startArrow=classic;html=1;rounded=0;endFill=0;strokeWidth=4;strokeColor=#FF8000;" edge="1" parent="1">
          <mxGeometry width="100" height="100" relative="1" as="geometry">
            <mxPoint x="550" y="220" as="sourcePoint" />
            <mxPoint x="650" y="120" as="targetPoint" />
          </mxGeometry>
        </mxCell>
        <mxCell id="BRBfMTmht_nKHhd3XeDZ-10" value="" style="verticalLabelPosition=bottom;verticalAlign=top;html=1;shape=mxgraph.basic.arc;startAngle=0;endAngle=0.18183964312061726;strokeWidth=4;dashed=1;" vertex="1" parent="1">
          <mxGeometry x="410" y="100" width="200" height="200" as="geometry" />
        </mxCell>
        <mxCell id="BRBfMTmht_nKHhd3XeDZ-11" value="&lt;b&gt;&lt;font face=&quot;cmu sans serif&quot; style=&quot;font-size: 25px;&quot;&gt;v&lt;/font&gt;&lt;/b&gt;" style="text;html=1;strokeColor=none;fillColor=none;align=center;verticalAlign=middle;whiteSpace=wrap;rounded=0;" vertex="1" parent="1">
          <mxGeometry x="525" y="180" width="20" height="30" as="geometry" />
        </mxCell>
        <mxCell id="BRBfMTmht_nKHhd3XeDZ-12" value="&lt;font style=&quot;font-size: 25px;&quot;&gt;ϕ&lt;/font&gt;" style="text;html=1;strokeColor=none;fillColor=none;align=center;verticalAlign=middle;whiteSpace=wrap;rounded=0;" vertex="1" parent="1">
          <mxGeometry x="560" y="80" width="20" height="30" as="geometry" />
        </mxCell>
        <mxCell id="BRBfMTmht_nKHhd3XeDZ-13" value="" style="endArrow=none;dashed=1;html=1;dashPattern=1 3;strokeWidth=2;rounded=0;exitX=0.008;exitY=0.375;exitDx=0;exitDy=0;exitPerimeter=0;" edge="1" parent="1" source="BRBfMTmht_nKHhd3XeDZ-3">
          <mxGeometry width="50" height="50" relative="1" as="geometry">
            <mxPoint x="540" y="300" as="sourcePoint" />
            <mxPoint x="690" y="300" as="targetPoint" />
          </mxGeometry>
        </mxCell>
        <mxCell id="BRBfMTmht_nKHhd3XeDZ-14" value="" style="endArrow=none;dashed=1;html=1;dashPattern=1 3;strokeWidth=2;rounded=0;" edge="1" parent="1">
          <mxGeometry width="50" height="50" relative="1" as="geometry">
            <mxPoint x="650" y="390" as="sourcePoint" />
            <mxPoint x="650" y="120" as="targetPoint" />
          </mxGeometry>
        </mxCell>
        <mxCell id="BRBfMTmht_nKHhd3XeDZ-15" value="" style="verticalLabelPosition=bottom;verticalAlign=top;html=1;shape=mxgraph.basic.arc;startAngle=0;endAngle=0.15016080035727128;strokeWidth=4;dashed=1;flipH=1;flipV=1;" vertex="1" parent="1">
          <mxGeometry x="580" y="80" width="140" height="140" as="geometry" />
        </mxCell>
        <mxCell id="BRBfMTmht_nKHhd3XeDZ-16" value="&lt;font style=&quot;font-size: 25px;&quot;&gt;θ&lt;/font&gt;" style="text;html=1;strokeColor=none;fillColor=none;align=center;verticalAlign=middle;whiteSpace=wrap;rounded=0;" vertex="1" parent="1">
          <mxGeometry x="600" y="220" width="20" height="30" as="geometry" />
        </mxCell>
        <mxCell id="BRBfMTmht_nKHhd3XeDZ-17" value="&lt;font face=&quot;cmu sans serif&quot; style=&quot;font-size: 25px;&quot;&gt;v&lt;sub&gt;x&lt;/sub&gt;&lt;/font&gt;" style="text;html=1;strokeColor=none;fillColor=none;align=center;verticalAlign=middle;whiteSpace=wrap;rounded=0;" vertex="1" parent="1">
          <mxGeometry x="560" y="270" width="20" height="30" as="geometry" />
        </mxCell>
        <mxCell id="BRBfMTmht_nKHhd3XeDZ-18" value="&lt;font face=&quot;cmu sans serif&quot; style=&quot;font-size: 25px;&quot;&gt;v&lt;/font&gt;&lt;font face=&quot;cmu sans serif&quot; style=&quot;font-size: 20.8333px;&quot;&gt;&lt;sub&gt;y&lt;/sub&gt;&lt;/font&gt;" style="text;html=1;strokeColor=none;fillColor=none;align=center;verticalAlign=middle;whiteSpace=wrap;rounded=0;" vertex="1" parent="1">
          <mxGeometry x="660" y="170" width="20" height="30" as="geometry" />
        </mxCell>
      </root>
    </mxGraphModel>
  </diagram>
</mxfile>
